<?xml version="1.0" encoding="UTF-8" standalone="no"?>
<svg
   xmlns:dc="http://purl.org/dc/elements/1.1/"
   xmlns:cc="http://creativecommons.org/ns#"
   xmlns:rdf="http://www.w3.org/1999/02/22-rdf-syntax-ns#"
   xmlns:svg="http://www.w3.org/2000/svg"
   xmlns="http://www.w3.org/2000/svg"
   xmlns:sodipodi="http://sodipodi.sourceforge.net/DTD/sodipodi-0.dtd"
   xmlns:inkscape="http://www.inkscape.org/namespaces/inkscape"
   width="40px"
   height="31px"
   viewBox="0 0 40 31"
   version="1.1"
   id="svg29"
   sodipodi:docname="page view - rouge - mirador.svg"
   inkscape:version="0.92.4 (5da689c313, 2019-01-14)">
  <metadata
     id="metadata33">
    <rdf:RDF>
      <cc:Work
         rdf:about="">
        <dc:format>image/svg+xml</dc:format>
        <dc:type
           rdf:resource="http://purl.org/dc/dcmitype/StillImage" />
      </cc:Work>
    </rdf:RDF>
  </metadata>
  <sodipodi:namedview
     pagecolor="#ffffff"
     bordercolor="#666666"
     borderopacity="1"
     objecttolerance="10"
     gridtolerance="10"
     guidetolerance="10"
     inkscape:pageopacity="0"
     inkscape:pageshadow="2"
     inkscape:window-width="640"
     inkscape:window-height="480"
     id="namedview31"
     showgrid="false"
     inkscape:zoom="7.6129032"
     inkscape:cx="20"
     inkscape:cy="15.5"
     inkscape:window-x="1"
     inkscape:window-y="1"
     inkscape:window-maximized="0"
     inkscape:current-layer="Group-8" />
  <!-- Generator: Sketch 50.2 (55047) - http://www.bohemiancoding.com/sketch -->
  <title
     id="title2">page view - rouge - mirador</title>
  <desc
     id="desc4">Created with Sketch.</desc>
  <defs
     id="defs6" />
  <g
     id="page-view---rouge---mirador"
     stroke="none"
     stroke-width="1"
     fill="none"
     fill-rule="evenodd">
    <g
       id="Group-8"
       transform="translate(0.497553, 0.195759)">
      <polygon
         id="Stroke-1"
         stroke="#D73449"
         stroke-width="1.6"
         points="0.645427568 13.7568843 38.4433955 13.7568843 38.4433955 1.49216445 0.645427568 1.49216445" />
      <path
         d="M14.9100573,13.004121 C15.7415049,12.5136886 16.4436815,12.2469622 17.028339,12.2469622 C17.7217016,12.2469622 17.8588072,12.5490609 17.8588072,12.8616757 C17.8588072,13.2804074 17.539547,13.6456027 16.9362823,13.8769568 C16.2791547,13.9935898 15.6230064,14.1714074 14.9737134,14.3941574 L14.9198505,14.5633709 L15.8413961,15.9629673 C16.508317,15.703889 17.0831812,15.5432796 17.539547,15.5432796 C18.1692535,15.5432796 18.4424854,15.8377302 18.4424854,16.3013944 C18.4424854,17.1742301 17.5023327,17.7449672 16.7178927,17.7449672 C15.1930824,17.7449672 14.4174564,16.6665896 13.3490119,14.7861209 L12.6830704,15.2316208 L12.6644632,15.3119255 C13.9699045,17.8434361 15.4398725,19.3854778 17.2927569,19.3854778 C18.6892755,19.3854778 19.7028777,18.4485895 19.7028777,17.2287226 C19.7028777,16.9878085 19.6754566,16.7822666 19.6294283,16.5776808 L19.7028777,16.5509126 C20.0593523,16.7736626 20.5881882,16.9256679 21.0719752,16.9256679 C21.1904736,16.9256679 21.2639231,16.9256679 21.3824215,16.9075038 L21.3550004,19.8749542 L22.8151751,20.2850819 L22.9434668,20.1952171 L22.9072317,12.2909386 L24.4956982,12.2909386 L24.6239899,12.1217251 L24.002118,10.9009022 L19.4835087,10.9009022 L19.3561964,11.0710718 L19.9770889,12.2909386 L21.4010287,12.2909386 L21.4010287,15.0901316 C20.9446628,15.3472979 20.4510826,15.5079073 19.9310606,15.5079073 C19.5471649,15.5079073 19.1642485,15.4820951 19.0095151,15.3214856 C18.8812234,15.1608762 18.753911,15.0174749 18.6070122,14.8941498 C18.9184378,14.5012303 19.0819852,14.0920587 19.0819852,13.7000952 C19.0819852,13.1293581 18.8988512,12.6475298 18.4885137,12.0863528 C17.8225722,11.1771887 17.1830724,10.758457 16.114628,10.758457 C15.4036375,10.758457 14.6818743,11.0337874 14.0159328,11.5070116 L13.9787184,11.6312927 L14.9100573,13.004121 Z"
         id="Stroke-3"
         stroke="#D73449"
         stroke-width="0.2" />
      <path
         d="M16.6679471,6.41244223 L16.6679471,6.67152054 C17.6169138,6.26139289 18.6540198,6.0156987 19.7449887,5.95738218 L19.2690364,5.02240585 L14.7504272,5.02240585 L14.6231148,5.19161935 L15.2440074,6.41244223 L16.6679471,6.41244223 Z"
         id="Fill-4"
         fill="#D73449" />
      <path
         d="M12.775127,6.51091111 C13.4684897,6.51091111 13.6065746,6.81396581 13.6065746,7.1265806 C13.6065746,7.54435632 13.2863351,7.91050758 12.6840497,8.14186165 C12.0259428,8.25753868 11.3688152,8.43631227 10.7214808,8.65906226 L10.6676179,8.82827576 L11.5881841,10.2278722 C12.255105,9.96879393 12.8299693,9.80914051 13.2863351,9.80914051 C13.3441153,9.80914051 13.3832883,9.82348063 13.4361719,9.82921668 C13.821047,9.27855578 14.2744748,8.77951933 14.7778483,8.33115133 C14.8082074,8.20782623 14.8297525,8.08450114 14.8297525,7.96404406 C14.8297525,7.39330698 14.6466186,6.91243469 14.2353018,6.35125769 C13.5703396,5.44113758 12.9308398,5.02240585 11.861416,5.02240585 C11.1504255,5.02240585 10.4286624,5.29869231 9.76272085,5.77191653 L9.72648579,5.89619763 L10.6568453,7.26902587 C11.4892722,6.7785935 12.1904695,6.51091111 12.775127,6.51091111"
         id="Fill-5"
         fill="#D73449" />
      <path
         d="M11.6998273,11.7938142 C10.259239,11.7345417 9.49046828,10.6724162 8.45434158,8.84643993 L7.78644138,9.2919399 L7.76783419,9.37224461 C8.8196301,11.4075867 9.97915185,12.787107 11.3560839,13.2555512 C11.4295334,12.7536467 11.5421558,12.2641704 11.6998273,11.7938142"
         id="Fill-6"
         fill="#D73449" />
      <path
         d="M29.0632737,5.02240585 L24.5436852,5.02240585 L24.4163728,5.19066335 L25.0372654,6.41244223 L26.4612051,6.41244223 L26.4612051,9.21067917 C26.3760037,9.2584796 26.2888437,9.29958796 26.2007044,9.34069633 C26.9293228,10.1341834 27.5365048,11.0328314 27.9928706,12.0156082 L27.9674082,6.41244223 L29.5558746,6.41244223 L29.6841663,6.24322873 L29.0632737,5.02240585 Z"
         id="Fill-7"
         fill="#D73449" />
      <path
         d="M29.0632737,5.02240585 L24.5436852,5.02240585 L24.4163728,5.19066335 L25.0372654,6.41244223 L26.4612051,6.41244223 L26.4612051,9.21067917 C26.3760037,9.2584796 26.2888437,9.29958796 26.2007044,9.34069633 C26.9293228,10.1341834 27.5365048,11.0328314 27.9928706,12.0156082 L27.9674082,6.41244223 L29.5558746,6.41244223 L29.6841663,6.24322873 L29.0632737,5.02240585 Z"
         id="Stroke-8"
         stroke="#D73449"
         stroke-width="0.2" />
      <path
         d="M22.1668614,6.55201948 C22.306905,6.52716326 22.4410727,6.5099551 22.568385,6.5099551 C23.2039675,6.5099551 23.3645769,6.7671214 23.3880807,7.04914391 C23.8072322,7.24894969 24.2146317,7.46787564 24.6004861,7.71834987 C24.5544577,7.25181771 24.3791584,6.82830594 24.0285598,6.35125769 C23.3626182,5.44113758 22.7231185,5.02240585 21.6556534,5.02240585 C20.9436835,5.02240585 20.2219204,5.2977363 19.5559789,5.77191653 L19.5197438,5.89524163 L19.6010278,6.0156987 C20.4931936,6.09217938 21.351083,6.27764503 22.1668614,6.55201948"
         id="Fill-9"
         fill="#D73449" />
      <path
         d="M22.1668614,6.55201948 C22.306905,6.52716326 22.4410727,6.5099551 22.568385,6.5099551 C23.2039675,6.5099551 23.3645769,6.7671214 23.3880807,7.04914391 C23.8072322,7.24894969 24.2146317,7.46787564 24.6004861,7.71834987 C24.5544577,7.25181771 24.3791584,6.82830594 24.0285598,6.35125769 C23.3626182,5.44113758 22.7231185,5.02240585 21.6556534,5.02240585 C20.9436835,5.02240585 20.2219204,5.2977363 19.5559789,5.77191653 L19.5197438,5.89524163 L19.6010278,6.0156987 C20.4931936,6.09217938 21.351083,6.27764503 22.1668614,6.55201948 Z"
         id="Stroke-10"
         stroke="#D73449"
         stroke-width="0.2" />
      <path
         d="M26.3537241,8.26638176 C23.2286954,5.21575857 18.1371806,5.21575857 15.0082347,8.26638176 C11.883206,11.3170049 11.883206,16.2872932 15.0082347,19.3407844 C18.1371806,22.3952317 23.2286954,22.3952317 26.3537241,19.3407844 C29.48267,16.2872932 29.48267,11.3170049 26.3537241,8.26638176"
         id="Fill-11"
         fill="#B6B5B6" />
      <path
         d="M26.3537241,8.26638176 C23.2286954,5.21575857 18.1371806,5.21575857 15.0082347,8.26638176 C11.883206,11.3170049 11.883206,16.2872932 15.0082347,19.3407844 C18.1371806,22.3952317 23.2286954,22.3952317 26.3537241,19.3407844 C29.48267,16.2872932 29.48267,11.3170049 26.3537241,8.26638176 Z"
         id="Stroke-12"
         stroke="#B6B5B6"
         stroke-width="0.4" />
      <path
         d="M26.4856882,19.4724746 C23.3606596,22.5269218 18.2691448,22.5269218 15.1401988,19.4724746 C12.0151702,16.4189834 12.0151702,11.4486951 15.1401988,8.39807193 C18.2691448,5.34744874 23.3606596,5.34744874 26.4856882,8.39807193 C29.6146342,11.4486951 29.6146342,16.4189834 26.4856882,19.4724746 M35.6384672,26.8710246 L29.6479312,21.0279005 C29.334547,20.7219778 28.8801398,20.634025 28.4884095,20.7688222 L27.6011403,19.9026785 C30.8309568,16.4075113 30.7183343,10.9974591 27.2730662,7.62944108 C23.7112582,4.1533941 17.9156081,4.1533941 14.3528209,7.62944108 C10.7959096,11.1064441 10.7959096,16.7641025 14.3528209,20.2372814 C17.803965,23.6052995 23.3449904,23.7142844 26.9254055,20.5613683 L27.816592,21.4284681 C27.6755691,21.8060914 27.765667,22.2544594 28.078072,22.5594261 L34.0676286,28.4073302 C34.5004906,28.829886 35.2046258,28.829886 35.6384672,28.4073302 C36.0703498,27.9809504 36.0703498,27.2974044 35.6384672,26.8710246"
         id="Fill-13"
         fill="#B6B5B6" />
      <path
         d="M26.6299766,19.61336 C23.3355576,22.8333718 17.96806,22.8333718 14.6695113,19.61336 C11.3750923,16.394356 11.3750923,11.154656 14.6695113,7.93867548 C17.96806,4.72269497 23.3355576,4.72269497 26.6299766,7.93867548 C29.9285254,11.154656 29.9285254,16.394356 26.6299766,19.61336 Z M36.2788769,27.4129442 L29.9636273,21.2530969 C29.6332562,20.9305918 29.1542181,20.8378715 28.7412543,20.9799753 L27.8058912,20.0668828 C31.2107781,16.3822621 31.092051,10.678961 27.460034,7.12838143 C23.7051602,3.46391726 17.5953602,3.46391726 13.839454,7.12838143 C10.0897423,10.7938534 10.0897423,16.7581821 13.839454,20.4196227 C17.4776655,23.9702023 23.319039,24.0850947 27.0935286,20.7612766 L28.0330213,21.675377 C27.8843543,22.0734692 27.979336,22.5461407 28.3086747,22.867638 L34.6228918,29.0325245 C35.0792169,29.4779847 35.8215194,29.4779847 36.2788769,29.0325245 C36.7341695,28.583033 36.7341695,27.8624357 36.2788769,27.4129442 Z"
         id="Stroke-14"
         stroke="#D73449"
         stroke-width="0.7"
         fill="#D73449" />
      <path
         d="M12.6644632,13.8310683 C12.6644632,18.167523 16.2664235,21.6827663 20.7086453,21.6827663 C25.1508672,21.6827663 28.7528274,18.167523 28.7528274,13.8310683 C28.7528274,9.49365769 25.1508672,5.97841437 20.7086453,5.97841437 C16.2664235,5.97841437 12.6644632,9.49365769 12.6644632,13.8310683"
         id="Fill-15"
         fill="#FEFEFE" />
      <path
         d="M15.9383493,10.6762402 L15.9745844,10.5510031 C16.6415053,10.0787349 17.3622891,9.80244845 18.0752382,9.80244845 C19.1427034,9.80244845 19.7822031,10.2211802 20.4481447,11.1313003 C20.8584822,11.6915213 21.0416161,12.1733496 21.0416161,12.7440867 C21.0416161,13.1360502 20.8780687,13.5461778 20.5676224,13.9381413 C20.713542,14.0624224 20.8408543,14.2048677 20.969146,14.3654771 C21.1238795,14.5260865 21.5077752,14.5538108 21.8906916,14.5538108 C22.4107136,14.5538108 22.9042938,14.3932014 23.3606596,14.134123 L23.3606596,11.3349301 L21.9367199,11.3349301 L21.3158273,10.1141072 L21.4431397,9.94489371 L25.9627282,9.94489371 L26.5836208,11.1666726 L26.4563084,11.3349301 L24.867842,11.3349301 L24.9040771,19.2411206 L24.7757854,19.3309854 L23.3156106,18.9208577 L23.3430317,15.9524513 C23.223554,15.9706154 23.1510839,15.9706154 23.0325854,15.9706154 C22.5487985,15.9706154 22.0189832,15.8186101 21.663488,15.5958601 L21.5900385,15.6226283 C21.6350875,15.8281701 21.663488,16.032756 21.663488,16.2727141 C21.663488,17.494493 20.6498858,18.4294693 19.2523879,18.4294693 C17.3985241,18.4294693 15.9285561,16.8883836 14.6231148,14.357829 L14.641722,14.2775243 L15.3076635,13.8310683 C16.376108,15.7124931 17.151734,16.7908707 18.6775236,16.7908707 C19.4629429,16.7908707 20.4030957,16.2201336 20.4030957,15.3463419 C20.4030957,14.8826777 20.1288844,14.5891831 19.499178,14.5891831 C19.0428121,14.5891831 18.4669686,14.7497925 17.8000477,15.0069588 L16.8785021,13.6083184 L16.9333444,13.4391049 C17.581658,13.2163549 18.239765,13.0385373 18.8968926,12.9219042 C19.499178,12.6895942 19.8184382,12.3253549 19.8184382,11.9056672 C19.8184382,11.5940084 19.6813326,11.2909537 18.9869906,11.2909537 C18.4033124,11.2909537 17.7001565,11.5586361 16.8687089,12.0490685 L15.9383493,10.6762402 Z"
         id="Fill-16"
         fill="#B6B5B6" />
      <path
         d="M15.9383493,10.6762402 L15.9745844,10.5510031 C16.6415053,10.0787349 17.3622891,9.80244845 18.0752382,9.80244845 C19.1427034,9.80244845 19.7822031,10.2211802 20.4481447,11.1313003 C20.8584822,11.6915213 21.0416161,12.1733496 21.0416161,12.7440867 C21.0416161,13.1360502 20.8780687,13.5461778 20.5676224,13.9381413 C20.713542,14.0624224 20.8408543,14.2048677 20.969146,14.3654771 C21.1238795,14.5260865 21.5077752,14.5538108 21.8906916,14.5538108 C22.4107136,14.5538108 22.9042938,14.3932014 23.3606596,14.134123 L23.3606596,11.3349301 L21.9367199,11.3349301 L21.3158273,10.1141072 L21.4431397,9.94489371 L25.9627282,9.94489371 L26.5836208,11.1666726 L26.4563084,11.3349301 L24.867842,11.3349301 L24.9040771,19.2411206 L24.7757854,19.3309854 L23.3156106,18.9208577 L23.3430317,15.9524513 C23.223554,15.9706154 23.1510839,15.9706154 23.0325854,15.9706154 C22.5487985,15.9706154 22.0189832,15.8186101 21.663488,15.5958601 L21.5900385,15.6226283 C21.6350875,15.8281701 21.663488,16.032756 21.663488,16.2727141 C21.663488,17.494493 20.6498858,18.4294693 19.2523879,18.4294693 C17.3985241,18.4294693 15.9285561,16.8883836 14.6231148,14.357829 L14.641722,14.2775243 L15.3076635,13.8310683 C16.376108,15.7124931 17.151734,16.7908707 18.6775236,16.7908707 C19.4629429,16.7908707 20.4030957,16.2201336 20.4030957,15.3463419 C20.4030957,14.8826777 20.1288844,14.5891831 19.499178,14.5891831 C19.0428121,14.5891831 18.4669686,14.7497925 17.8000477,15.0069588 L16.8785021,13.6083184 L16.9333444,13.4391049 C17.581658,13.2163549 18.239765,13.0385373 18.8968926,12.9219042 C19.499178,12.6895942 19.8184382,12.3253549 19.8184382,11.9056672 C19.8184382,11.5940084 19.6813326,11.2909537 18.9869906,11.2909537 C18.4033124,11.2909537 17.7001565,11.5586361 16.8687089,12.0490685 L15.9383493,10.6762402 Z"
         id="Stroke-17"
         stroke="#D73449"
         stroke-width="0.2"
         fill="#D73449" />
    </g>
  </g>
</svg>
